<svg id="Capa_1" enable-background="new 0 0 512 512" height="512" viewBox="0 0 512 512" width="512" xmlns="http://www.w3.org/2000/svg"><g><g><g><path d="m38.974 361.657c-7.886 0-15.178 4.193-19.144 11.01-4.483 7.705-3.876 17.321 1.449 24.469 24.512 32.904 63.707 54.217 107.893 54.217 58.569 0 108.368-37.447 126.828-89.696z" fill="#ffb5c0"/></g><g><path d="m473.026 361.657c7.886 0 15.178 4.193 19.144 11.01 4.483 7.705 3.876 17.321-1.449 24.469-24.512 32.904-63.707 54.217-107.893 54.217-58.569 0-108.368-37.447-126.828-89.696z" fill="#ffdbe0"/></g><g><g><g><path d="m256 385.495c-30.846-64.55-19.57-144.198 33.897-197.665 49.673-49.673 121.941-62.93 183.707-39.829 9.171 3.43 16.459 10.718 19.889 19.889 23.101 61.766 9.844 134.033-39.829 183.706-53.467 53.468-133.115 64.744-197.664 33.899z" fill="#ffb5c0"/></g><g><path d="m256 385.495c30.846-64.55 19.57-144.198-33.897-197.665-49.673-49.673-121.941-62.93-183.707-39.829-9.171 3.43-16.459 10.718-19.889 19.889-23.101 61.766-9.844 134.033 39.829 183.706 53.467 53.468 133.115 64.744 197.664 33.899z" fill="#ff8e9e"/></g><g><path d="m270.064 63.691-94.064 64.348v164.526l80 92.93c67.454-23.833 115.8-88.125 115.8-163.739 0-70.248-41.726-130.724-101.736-158.065z" fill="#ffdbe0"/><path d="m269.32 63.377c-8.738-3.729-18.719-3.633-27.384.315-60.011 27.34-101.737 87.816-101.737 158.064 0 75.615 48.346 139.907 115.801 163.739 4.822-1.704 9.542-3.621 14.158-5.728-31.48-44.979-49.96-99.722-49.96-158.798.001-58.548 18.152-112.841 49.122-157.592z" fill="#ffb5c0"/></g></g></g></g><g><path d="m356.019 389.783c-5.79-3.195-12.688-6.096-20.492-8.631 11.845-23.245 14.598-42.635 5.326-51.906-9.271-9.271-28.661-6.518-51.906 5.327h-7.847l-17.745 40.724 17.745 38.802h12.154 56.362c13.362 0 18.101-17.861 6.403-24.316z" fill="#70dcba"/><path d="m273.355 375.297c-.822-15.173 4.847-29.979 15.592-40.724-8.061-24.822-19.832-40.474-32.946-40.474s-24.886 15.652-32.946 40.474c-23.245-11.845-42.636-14.598-51.906-5.327-9.271 9.271-6.519 28.662 5.326 51.906-7.804 2.535-14.702 5.436-20.492 8.631-11.699 6.455-6.96 24.316 6.402 24.316h56.361c0 20.575 16.679 37.254 37.254 37.254s37.254-16.679 37.254-37.254c-11.842-9.521-19.077-23.629-19.899-38.802z" fill="#30cd9c"/></g><g><path d="m473.028 354.154h-11.34c47.951-50.037 63.238-123.738 38.87-188.894-4.201-11.232-13.054-20.084-24.287-24.286-37.728-14.112-79.235-15.208-117.615-3.247-7.114-13.558-15.928-26.171-26.26-37.567-2.782-3.066-7.525-3.301-10.594-.519s-3.301 7.525-.519 10.595c52.452 57.846 57.283 143.975 12.804 207.034-10.487-2.632-24.42-.293-40.846 6.955-8.761-22.709-20.46-35.596-34.094-37.425-19.908-2.671-33.133 18.721-40.376 37.427-16.427-7.249-30.363-9.588-40.852-6.956-59.669-84.588-27.796-203.507 67.13-246.756 6.803-3.103 15.098-3.104 21.909.001 11.824 5.387 23.033 12.185 33.314 20.205 3.267 2.55 7.979 1.966 10.526-1.3 2.548-3.266 1.966-7.979-1.3-10.526-11.208-8.744-23.428-16.155-36.321-22.029-11.034-5.026-23.636-4.882-34.347-.001-36.661 16.704-66.786 45.27-85.465 80.854-37.774-11.777-79.259-11.081-117.592 3.257-11.233 4.202-20.085 13.054-24.286 24.287-19.12 51.119-13.639 106.465 11.003 151.085 2.007 3.634 6.574 4.937 10.191 2.939 3.626-2.003 4.942-6.565 2.939-10.191-23.226-42.055-27.168-92.902-10.084-138.581 2.68-7.165 8.326-12.812 15.491-15.492 34.469-12.891 71.751-13.763 105.862-3.598-23.015 54.423-18.822 120.453 18.052 173.475-9.488 10.578-9.033 28.793 1.193 51.965-5.055 1.958-9.665 4.083-13.772 6.35-3.38 1.865-6.063 4.508-7.875 7.656-36.708-8.242-69.26-28.648-92.893-57.99-2.598-3.226-7.319-3.736-10.545-1.137-3.226 2.598-3.735 7.319-1.136 10.546 3.288 4.082 6.799 8.055 10.452 11.864h-11.386c-24.238 0-38.409 27.727-23.709 47.46 25.988 34.885 67.448 57.237 113.907 57.237 30.878 0 60.684-10.016 85.172-28.411 6.542 16.617 22.743 28.411 41.654 28.411 18.912 0 35.113-11.795 41.655-28.412 24.488 18.396 54.293 28.412 85.173 28.412 46.259 0 87.797-22.189 113.906-57.237 14.725-19.767.476-47.46-23.709-47.46zm-125.964-29.253c36.805-52.923 41.116-118.929 18.056-173.465 34.65-10.321 71.945-9.111 105.896 3.587 7.166 2.681 12.812 8.327 15.493 15.492 35.209 94.145-20.906 198.365-118.986 220.363-1.812-3.152-4.496-5.797-7.878-7.664-4.106-2.267-8.718-4.392-13.772-6.35 10.222-23.167 10.678-41.381 1.191-51.963zm-217.887 118.95c-40.506 0-77.638-18.661-101.878-51.198-7.327-9.834-.265-23.499 11.68-23.499h27.607c22.049 18.041 47.888 30.542 75.828 36.614 2.14 9.035 9.912 15.829 19.974 15.829h38.564c-21.026 14.436-45.981 22.254-71.775 22.254zm164.08-37.255c-4.142 0-7.5 3.357-7.5 7.5 0 16.407-13.348 29.755-29.754 29.755-16.407 0-29.754-13.348-29.754-29.755 0-4.143-3.358-7.5-7.5-7.5h-56.361c-5.661 0-7.702-7.53-2.778-10.249 5.359-2.957 11.813-5.671 19.184-8.063 4.382-1.423 6.458-6.433 4.366-10.539-12.42-24.374-11.607-38.297-6.706-43.198 8.626-8.628 32.306 1.158 43.197 6.707 4.102 2.091 9.115.019 10.539-4.366 3.057-9.41 6.741-17.537 10.656-23.502 3.131-4.773 9.417-12.648 16.307-11.719 6.685.896 16.674 10.619 24.663 35.221 1.42 4.372 6.423 6.464 10.538 4.366 24.371-12.42 38.29-11.61 43.19-6.712 4.905 4.905 5.722 18.83-6.698 43.203-2.092 4.105-.017 9.114 4.366 10.539 7.372 2.394 13.827 5.106 19.184 8.063 4.86 2.681 2.947 10.249-2.778 10.249zm191.45-13.943c-24.239 32.537-61.371 51.198-101.877 51.198-25.795 0-50.751-7.818-71.777-22.255h38.565c10.139 0 17.85-6.875 19.972-15.82 27.955-6.068 53.808-18.573 75.868-36.622h27.569c11.96 0 18.999 13.674 11.68 23.499z"/><path d="m206.79 217.289c-2.095 2.403-5.117 3.781-8.293 3.781-3.175 0-6.198-1.378-8.292-3.781-2.721-3.124-7.46-3.448-10.582-.726-3.123 2.721-3.448 7.459-.726 10.581 4.944 5.673 12.088 8.926 19.6 8.926s14.657-3.253 19.601-8.926c2.722-3.122 2.396-7.86-.726-10.581-3.122-2.722-7.861-2.397-10.582.726z"/><path d="m305.21 217.289c-2.721-3.124-7.46-3.448-10.582-.726-3.123 2.721-3.448 7.459-.726 10.581 4.944 5.673 12.088 8.926 19.601 8.926s14.656-3.253 19.6-8.926c2.722-3.122 2.396-7.86-.726-10.581-3.122-2.723-7.86-2.397-10.582.726-2.095 2.403-5.117 3.781-8.292 3.781s-6.198-1.378-8.293-3.781z"/><path d="m267.562 225.453c-2.938 3.372-7.181 5.306-11.64 5.306s-8.701-1.934-11.64-5.306c-2.721-3.122-7.459-3.448-10.582-.727-3.123 2.722-3.448 7.459-.727 10.582 5.788 6.642 14.152 10.45 22.948 10.45s17.16-3.809 22.948-10.45c2.721-3.123 2.396-7.86-.727-10.582-3.121-2.721-7.858-2.396-10.58.727z"/></g></g></svg>