<svg id="Capa_1" enable-background="new 0 0 514.099 514.099" height="512" viewBox="0 0 514.099 514.099" width="512" xmlns="http://www.w3.org/2000/svg"><g><g><g><g fill="#f8d448"><path d="m115.695 77.52-24.446-63.604c-1.691-4.399-6.723-6.743-11.182-5.216-19.333 6.619-33.227 19.229-41.683 37.832-1.95 4.29-.104 9.525 4.111 11.633l60.944 30.479c7.248 3.623 15.163-3.561 12.256-11.124z"/><path d="m398.404 77.52 24.447-63.604c1.691-4.398 6.723-6.742 11.181-5.216 19.333 6.619 33.227 19.229 41.683 37.832 1.95 4.29.103 9.525-4.111 11.633l-60.944 30.479c-7.248 3.623-15.163-3.561-12.256-11.124z"/><path d="m115.695 436.579-24.447 63.604c-1.691 4.398-6.723 6.742-11.181 5.216-19.333-6.619-33.227-19.229-41.683-37.832-1.95-4.29-.104-9.525 4.111-11.633l60.944-30.479c7.248-3.623 15.163 3.561 12.256 11.124z"/><path d="m398.404 436.579 24.447 63.604c1.691 4.398 6.723 6.742 11.181 5.216 19.333-6.619 33.227-19.229 41.683-37.832 1.95-4.29.103-9.525-4.111-11.633l-60.944-30.479c-7.248-3.623-15.163 3.561-12.256 11.124z"/></g><path d="m11.431 272.467c-5.401-10.518-5.072-21.355.118-32.462 1.428-3.057 5.155-4.269 8.167-2.748l28.184 14.234c4.535 2.29 4.397 8.813-.23 10.91l-28.335 12.841c-2.952 1.338-6.425.107-7.904-2.775z" fill="#fbe88c"/><path d="m502.668 272.467c5.401-10.518 5.072-21.355-.117-32.462-1.428-3.057-5.155-4.269-8.167-2.748l-28.184 14.234c-4.535 2.29-4.397 8.813.23 10.91l28.335 12.841c2.951 1.338 6.424.107 7.903-2.775z" fill="#fbe88c"/></g><path d="m269.927 67.005 45.241 91.669c1.882 3.814 5.521 6.458 9.73 7.069l101.162 14.7c10.599 1.54 14.832 14.566 7.162 22.042l-73.202 71.354c-3.046 2.969-4.435 7.246-3.716 11.438l17.281 100.754c1.811 10.556-9.27 18.607-18.75 13.623l-90.482-47.569c-3.765-1.979-8.262-1.979-12.027 0l-90.482 47.569c-9.48 4.984-20.561-3.066-18.75-13.623l17.281-100.754c.719-4.192-.671-8.469-3.716-11.438l-73.202-71.354c-7.67-7.476-3.437-20.502 7.162-22.042l101.162-14.7c4.209-.612 7.848-3.255 9.73-7.069l45.241-91.669c4.739-9.605 18.435-9.605 23.175 0z" fill="#fbe88c"/><path d="m373.585 386.031-2.638-15.382-102.511-53.893c-4.426-2.327-9.713-2.327-14.139 0l-55.094 28.965c-5.396 2.837-11.702-1.745-10.672-7.753l12.912-75.285c.719-4.192-.671-8.469-3.717-11.438l-35.73-34.828c-6.698-6.529-3.002-17.904 6.254-19.249l58.323-8.475c4.209-.612 7.848-3.255 9.73-7.069l45.097-91.373-11.473-23.246c-4.74-9.605-18.436-9.605-23.176 0l-45.241 91.669c-1.883 3.815-5.521 6.458-9.73 7.069l-101.163 14.7c-10.599 1.54-14.831 14.565-7.162 22.042l73.202 71.355c3.046 2.968 4.436 7.246 3.717 11.438l-17.28 100.753c-1.811 10.557 9.27 18.607 18.751 13.623l90.482-47.569c3.765-1.979 8.262-1.979 12.027 0l90.483 47.569c9.478 4.983 20.558-3.067 18.748-13.623z" fill="#fbe372"/></g><g><path d="m361.974 283.767c-.298-1.741.278-3.516 1.544-4.749l72.879-71.04c5.592-5.45 7.566-13.45 5.153-20.876s-8.713-12.738-16.441-13.86l-100.716-14.635c-1.748-.254-3.259-1.352-4.04-2.935l-45.041-91.265c-3.456-7.002-10.454-11.352-18.263-11.352s-14.806 4.35-18.262 11.352l-22.687 45.968c-1.833 3.714-.308 8.212 3.406 10.045s8.211.308 10.045-3.406l22.687-45.969c1.332-2.699 3.809-2.991 4.811-2.991 1.003 0 3.48.292 4.812 2.991l45.042 91.266c2.969 6.011 8.7 10.175 15.334 11.139l100.716 14.635c2.979.433 4.021 2.698 4.331 3.652.311.954.798 3.399-1.357 5.5l-72.879 71.04c-4.801 4.68-6.99 11.418-5.856 18.026l17.204 100.31c.509 2.967-1.323 4.659-2.135 5.248s-2.983 1.811-5.65.408l-36.434-19.154c-3.666-1.926-8.201-.518-10.129 3.148-1.928 3.667-.518 8.201 3.148 10.129l36.434 19.154c3.007 1.58 6.26 2.361 9.496 2.361 4.205 0 8.382-1.318 11.951-3.911 6.317-4.59 9.422-12.223 8.102-19.919z"/><path d="m291.656 358.12-25.13-13.21c-5.935-3.121-13.02-3.121-18.954 0l-90.083 47.36c-2.663 1.402-4.839.182-5.651-.408-.811-.59-2.643-2.281-2.134-5.249l17.204-100.309c1.133-6.608-1.056-13.347-5.857-18.026l-72.879-71.04c-2.155-2.101-1.667-4.546-1.357-5.5s1.353-3.219 4.332-3.652l100.716-14.635c6.634-.964 12.367-5.128 15.334-11.14l8.115-16.443c1.833-3.715.308-8.212-3.406-10.045-3.716-1.834-8.213-.308-10.045 3.406l-8.115 16.443c-.782 1.583-2.292 2.681-4.04 2.935l-100.717 14.635c-7.728 1.123-14.027 6.434-16.44 13.86s-.438 15.426 5.153 20.876l72.879 71.04c1.265 1.233 1.842 3.008 1.543 4.75l-17.204 100.308c-1.32 7.697 1.784 15.329 8.102 19.919 3.57 2.594 7.746 3.912 11.952 3.911 3.236 0 6.49-.781 9.496-2.361l90.083-47.36c1.563-.822 3.43-.822 4.993 0l25.13 13.211c3.669 1.928 8.202.516 10.129-3.149s.517-8.2-3.149-10.127z"/><path d="m39.141 64.872 60.944 30.479c2.35 1.175 4.863 1.75 7.354 1.75 3.968 0 7.878-1.458 10.977-4.271 5.043-4.578 6.723-11.644 4.279-18.001l-24.445-63.604c-3.124-8.127-12.37-12.444-20.612-9.621-21.272 7.283-36.776 21.354-46.081 41.823-3.605 7.931-.203 17.551 7.584 21.445zm6.072-15.237c7.634-16.795 19.83-27.864 37.285-33.839.121-.042.249-.061.38-.061.565 0 1.174.361 1.371.872l24.446 63.604c.092.24.338.879-.36 1.512-.696.634-1.309.328-1.54.212l-60.945-30.479c-.602-.301-.918-1.203-.637-1.821z"/><path d="m395.682 92.83c3.099 2.812 7.009 4.271 10.978 4.271 2.49 0 5.005-.575 7.354-1.75l60.944-30.479c7.786-3.893 11.188-13.513 7.585-21.444-9.305-20.469-24.809-34.541-46.081-41.824-8.242-2.821-17.488 1.495-20.612 9.621l-24.446 63.604c-2.444 6.357-.765 13.423 4.278 18.001zm9.723-12.619 24.446-63.605c.196-.511.805-.872 1.37-.872.132 0 .261.02.381.061 17.454 5.976 29.65 17.045 37.284 33.838.281.618-.035 1.521-.638 1.822l-60.944 30.479c-.229.115-.842.422-1.54-.212-.697-.632-.452-1.271-.359-1.511z"/><path d="m118.416 421.269c-5.044-4.578-12.239-5.568-18.331-2.521l-60.944 30.479c-7.787 3.894-11.189 13.514-7.584 21.444 9.305 20.469 24.809 34.541 46.081 41.824 1.712.586 3.467.864 5.203.864 6.616 0 12.935-4.047 15.409-10.485l24.446-63.604c2.443-6.357.764-13.423-4.28-18.001zm-9.721 12.62-24.447 63.605c-.242.629-1.11 1.03-1.751.811-17.454-5.976-29.65-17.044-37.284-33.84-.281-.618.035-1.52.638-1.821l60.944-30.479c.122-.061.352-.176.644-.176.259 0 .568.09.896.388.697.632.452 1.271.36 1.512z"/><path d="m474.958 449.227-10.454-5.229c-3.704-1.853-8.21-.351-10.062 3.353-1.853 3.705-.352 8.21 3.354 10.063l10.454 5.229c.603.301.918 1.203.637 1.821-7.633 16.795-19.828 27.864-37.282 33.839-.64.22-1.511-.182-1.752-.811l-24.446-63.604c-.093-.24-.338-.879.359-1.512.696-.632 1.31-.326 1.54-.211l21.59 10.797c3.706 1.854 8.21.351 10.062-3.354 1.853-3.705.352-8.21-3.354-10.062l-21.59-10.797c-6.091-3.047-13.287-2.057-18.33 2.52-5.044 4.578-6.724 11.644-4.28 18.001l24.446 63.604c2.475 6.438 8.793 10.485 15.41 10.485 1.734 0 3.49-.278 5.202-.864 21.272-7.283 36.776-21.355 46.079-41.824 3.605-7.929.204-17.55-7.583-21.444z"/><path d="m58.717 257.177c.111-5.263-2.739-10.007-7.438-12.38l-28.184-14.234c-3.265-1.649-7.12-1.909-10.577-.713-3.464 1.198-6.223 3.677-7.766 6.981-6.339 13.568-6.337 26.71.005 39.062 2.403 4.68 7.143 7.394 12.082 7.394 1.873 0 3.775-.391 5.588-1.213l28.335-12.841c4.797-2.174 7.845-6.793 7.955-12.056zm-41.203 10.655c-3.368-7.325-3.309-14.941.18-23.193l24.12 12.182z"/><path d="m509.345 236.832c-1.543-3.304-4.301-5.783-7.765-6.982-3.457-1.197-7.312-.936-10.577.713l-28.184 14.234c-4.699 2.374-7.55 7.117-7.438 12.38.111 5.263 3.158 9.882 7.953 12.055l28.336 12.842c1.813.822 3.715 1.212 5.589 1.212 4.938 0 9.679-2.714 12.081-7.393 6.343-12.354 6.345-25.496.005-39.061zm-12.76 31-24.299-11.012 24.119-12.181c3.489 8.252 3.548 15.867.18 23.193z"/><path d="m178.463 54.344c.936 3.302 3.942 5.457 7.212 5.457.677 0 1.365-.092 2.049-.286 3.985-1.129 6.3-5.275 5.171-9.261l-8.066-28.463c-1.129-3.985-5.274-6.302-9.261-5.171-3.985 1.129-6.3 5.275-5.171 9.261z"/><path d="m80.473 135.238c1.69-3.782-.005-8.217-3.786-9.908l-22.37-10c-3.785-1.69-8.218.004-9.908 3.786s.005 8.217 3.786 9.908l22.37 10c.995.444 2.034.655 3.057.655 2.867 0 5.605-1.654 6.851-4.441z"/><path d="m45.682 341.741c-3.464 2.271-4.431 6.92-2.16 10.384 1.44 2.196 3.835 3.389 6.279 3.389 1.411 0 2.837-.397 4.105-1.229l20.492-13.435c3.464-2.271 4.431-6.92 2.16-10.384s-6.921-4.432-10.384-2.16z"/><path d="m200.928 451.081c-3.644-1.974-8.194-.622-10.167 3.02l-11.675 21.543c-1.974 3.642-.622 8.194 3.02 10.167 1.136.616 2.36.908 3.567.908 2.664 0 5.243-1.422 6.601-3.928l11.675-21.543c1.973-3.641.621-8.193-3.021-10.167z"/><path d="m326.375 59.515c.684.194 1.372.286 2.049.286 3.27 0 6.276-2.156 7.212-5.457l8.066-28.463c1.13-3.985-1.186-8.131-5.171-9.261-3.986-1.13-8.132 1.187-9.261 5.171l-8.066 28.463c-1.13 3.985 1.185 8.131 5.171 9.261z"/><path d="m469.69 119.115c-1.69-3.782-6.128-5.474-9.907-3.786l-22.37 10c-3.782 1.691-5.477 6.126-3.786 9.908 1.246 2.787 3.983 4.441 6.851 4.441 1.023 0 2.062-.21 3.057-.655l22.37-10c3.781-1.691 5.476-6.126 3.785-9.908z"/><path d="m437.54 330.465c-2.271 3.464-1.304 8.113 2.16 10.384l20.492 13.435c1.269.832 2.694 1.229 4.105 1.229 2.443 0 4.839-1.193 6.279-3.389 2.271-3.464 1.304-8.113-2.16-10.384l-20.492-13.435c-3.465-2.271-8.112-1.304-10.384 2.16z"/><path d="m323.339 454.102c-1.972-3.642-6.524-4.996-10.167-3.021-3.642 1.973-4.994 6.525-3.021 10.167l11.675 21.543c1.357 2.506 3.937 3.928 6.601 3.928 1.207 0 2.431-.292 3.566-.907 3.642-1.974 4.994-6.526 3.021-10.167z"/></g></g></svg>